<svg width="46" height="54" viewBox="0 0 46 54" fill="none" xmlns="http://www.w3.org/2000/svg">
<g id="Logo">
<g id="Group">
<path id="Vector" opacity="0.5" d="M32.9998 35.0002H28V40H32.9998V35.0002Z" fill="#0074BF"/>
<path id="Vector_2" opacity="0.7" d="M27.9998 35.0002H23V40H27.9998V35.0002Z" fill="#0074BF"/>
<path id="Vector_3" opacity="0.7" d="M22.9998 35.0002H18V40H22.9998V35.0002Z" fill="#0074BF"/>
<path id="Vector_4" opacity="0.5" d="M17.9998 35.0002H13V40H17.9998V35.0002Z" fill="#0074BF"/>
<path id="Vector_5" opacity="0.7" d="M37.9998 30.0003H33V35.0001H37.9998V30.0003Z" fill="#0082BF"/>
<path id="Vector_6" opacity="0.8" d="M32.9998 30.0003H28V35.0001H32.9998V30.0003Z" fill="#0082BF"/>
<path id="Vector_7" d="M27.9998 30.0003H23V35.0001H27.9998V30.0003Z" fill="#0082BF"/>
<path id="Vector_8" d="M22.9998 30.0003H18V35.0001H22.9998V30.0003Z" fill="#0082BF"/>
<path id="Vector_9" opacity="0.8" d="M17.9998 30.0003H13V35.0001H17.9998V30.0003Z" fill="#0082BF"/>
<path id="Vector_10" opacity="0.7" d="M12.9998 30.0003H8V35.0001H12.9998V30.0003Z" fill="#0082BF"/>
<path id="Vector_11" opacity="0.5" d="M42.9998 24.9998H38V29.9996H42.9998V24.9998Z" fill="#008FBF"/>
<path id="Vector_12" opacity="0.8" d="M37.9998 24.9998H33V29.9996H37.9998V24.9998Z" fill="#008FBF"/>
<path id="Vector_13" d="M32.9998 24.9998H28V29.9996H32.9998V24.9998Z" fill="#008FBF"/>
<path id="Vector_14" d="M27.9998 24.9998H23V29.9996H27.9998V24.9998Z" fill="#008FBF"/>
<path id="Vector_15" d="M22.9998 24.9998H18V29.9996H22.9998V24.9998Z" fill="#008FBF"/>
<path id="Vector_16" d="M17.9998 24.9998H13V29.9996H17.9998V24.9998Z" fill="#008FBF"/>
<path id="Vector_17" opacity="0.8" d="M12.9998 24.9998H8V29.9996H12.9998V24.9998Z" fill="#008FBF"/>
<path id="Vector_18" opacity="0.5" d="M7.99979 24.9998H3V29.9996H7.99979V24.9998Z" fill="#008FBF"/>
<path id="Vector_19" opacity="0.7" d="M42.9998 20H38V24.9998H42.9998V20Z" fill="#009DBF"/>
<path id="Vector_20" d="M37.9998 20H33V24.9998H37.9998V20Z" fill="#009DBF"/>
<path id="Vector_21" d="M32.9998 20H28V24.9998H32.9998V20Z" fill="#009DBF"/>
<path id="Vector_22" d="M27.9998 20H23V24.9998H27.9998V20Z" fill="#009DBF"/>
<path id="Vector_23" d="M22.9998 20H18V24.9998H22.9998V20Z" fill="#009DBF"/>
<path id="Vector_24" d="M17.9998 20H13V24.9998H17.9998V20Z" fill="#009DBF"/>
<path id="Vector_25" d="M12.9998 20H8V24.9998H12.9998V20Z" fill="#009DBF"/>
<path id="Vector_26" opacity="0.7" d="M7.99979 20H3V24.9998H7.99979V20Z" fill="#009DBF"/>
<path id="Vector_27" opacity="0.7" d="M42.9998 15.0002H38V20H42.9998V15.0002Z" fill="#00ABBF"/>
<path id="Vector_28" d="M37.9998 15.0002H33V20H37.9998V15.0002Z" fill="#00ABBF"/>
<path id="Vector_29" d="M32.9998 15.0002H28V20H32.9998V15.0002Z" fill="#00ABBF"/>
<path id="Vector_30" d="M27.9998 15.0002H23V20H27.9998V15.0002Z" fill="#00ABBF"/>
<path id="Vector_31" d="M22.9998 15.0002H18V20H22.9998V15.0002Z" fill="#00ABBF"/>
<path id="Vector_32" d="M17.9998 15.0002H13V20H17.9998V15.0002Z" fill="#00ABBF"/>
<path id="Vector_33" d="M12.9998 15.0002H8V20H12.9998V15.0002Z" fill="#00ABBF"/>
<path id="Vector_34" opacity="0.7" d="M7.99979 15.0002H3V20H7.99979V15.0002Z" fill="#00ABBF"/>
<path id="Vector_35" opacity="0.5" d="M42.9998 10.0003H38V15.0001H42.9998V10.0003Z" fill="#00B9BF"/>
<path id="Vector_36" opacity="0.8" d="M37.9998 10.0003H33V15.0001H37.9998V10.0003Z" fill="#00B9BF"/>
<path id="Vector_37" d="M32.9998 10.0003H28V15.0001H32.9998V10.0003Z" fill="#00B9BF"/>
<path id="Vector_38" d="M27.9998 10.0003H23V15.0001H27.9998V10.0003Z" fill="#00B9BF"/>
<path id="Vector_39" d="M22.9998 10.0003H18V15.0001H22.9998V10.0003Z" fill="#00B9BF"/>
<path id="Vector_40" d="M17.9998 10.0003H13V15.0001H17.9998V10.0003Z" fill="#00B9BF"/>
<path id="Vector_41" opacity="0.8" d="M12.9998 10.0003H8V15.0001H12.9998V10.0003Z" fill="#00B9BF"/>
<path id="Vector_42" opacity="0.5" d="M7.99979 10.0003H3V15.0001H7.99979V10.0003Z" fill="#00B9BF"/>
<path id="Vector_43" opacity="0.7" d="M37.9998 4.99982H33V9.9996H37.9998V4.99982Z" fill="#00C6BF"/>
<path id="Vector_44" opacity="0.8" d="M32.9998 4.99982H28V9.9996H32.9998V4.99982Z" fill="#00C6BF"/>
<path id="Vector_45" d="M27.9998 4.99982H23V9.9996H27.9998V4.99982Z" fill="#00C6BF"/>
<path id="Vector_46" d="M22.9998 4.99982H18V9.9996H22.9998V4.99982Z" fill="#00C6BF"/>
<path id="Vector_47" opacity="0.8" d="M17.9998 4.99982H13V9.9996H17.9998V4.99982Z" fill="#00C6BF"/>
<path id="Vector_48" opacity="0.7" d="M12.9998 4.99982H8V9.9996H12.9998V4.99982Z" fill="#00C6BF"/>
<path id="Vector_49" opacity="0.5" d="M32.9998 0H28V4.99979H32.9998V0Z" fill="#00D4BF"/>
<path id="Vector_50" opacity="0.7" d="M27.9998 0H23V4.99979H27.9998V0Z" fill="#00D4BF"/>
<path id="Vector_51" opacity="0.7" d="M22.9998 0H18V4.99979H22.9998V0Z" fill="#00D4BF"/>
<path id="Vector_52" opacity="0.5" d="M17.9998 0H13V4.99979H17.9998V0Z" fill="#00D4BF"/>
<path id="Vector_53" d="M16.1653 18.4228L17.5585 15.3046C18.066 14.5052 17.9989 13.5258 17.4432 12.9702C17.3691 12.8962 17.2871 12.8305 17.1986 12.7745C17.008 12.6575 16.7942 12.5835 16.572 12.5576C16.3499 12.5317 16.1248 12.5545 15.9124 12.6244C15.43 12.7744 15.0178 13.0933 14.7514 13.5225C14.7514 13.5225 12.844 17.9725 12.1341 19.9727C11.4243 21.973 11.7079 25.6409 14.4445 28.3834C17.347 31.2859 21.5499 31.9493 24.2302 29.9375C24.3422 29.8811 24.4477 29.8124 24.5445 29.7326L32.8042 22.8354C33.2056 22.5037 33.7993 21.8204 33.2661 21.0408C32.7461 20.2804 31.7609 20.7979 31.3587 21.0549L26.6052 24.5114C26.583 24.5298 26.5573 24.5435 26.5296 24.5517C26.5019 24.5599 26.4729 24.5624 26.4442 24.559C26.4155 24.5557 26.3878 24.5466 26.3628 24.5323C26.3377 24.518 26.3158 24.4988 26.2984 24.4758C26.1773 24.3273 26.1558 23.9342 26.3457 23.7783L33.6326 17.5943C34.2621 17.0271 34.35 16.2028 33.84 15.638C33.3424 15.0849 32.5521 15.1015 31.9168 15.6737L25.3563 20.8028C25.3256 20.8279 25.2901 20.8464 25.252 20.8572C25.2139 20.8681 25.174 20.871 25.1347 20.8659C25.0954 20.8608 25.0576 20.8477 25.0236 20.8274C24.9895 20.8072 24.96 20.7802 24.9367 20.7481C24.8073 20.603 24.7576 20.355 24.9035 20.2099L32.334 12.9992C32.6154 12.7367 32.7812 12.3731 32.7949 11.9885C32.8085 11.6038 32.669 11.2295 32.4069 10.9476C32.277 10.8107 32.1204 10.7017 31.9469 10.6275C31.7733 10.5532 31.5865 10.5151 31.3977 10.5155C31.009 10.5113 30.6342 10.6602 30.3545 10.9301L22.7623 18.062C22.5807 18.2436 22.2249 18.062 22.1818 17.8497C22.1739 17.8118 22.1757 17.7724 22.187 17.7353C22.1983 17.6982 22.2188 17.6646 22.2465 17.6374L28.0582 11.0205C28.1986 10.8895 28.3113 10.7316 28.3895 10.5562C28.4677 10.3807 28.5097 10.1913 28.5132 9.9993C28.5167 9.80725 28.4816 9.61647 28.4098 9.43829C28.3381 9.26012 28.2313 9.09819 28.0957 8.96215C27.9601 8.82611 27.7985 8.71874 27.6206 8.64642C27.4426 8.5741 27.2519 8.5383 27.0599 8.54118C26.8678 8.54405 26.6783 8.58552 26.5026 8.66313C26.3269 8.74074 26.1686 8.85289 26.0372 8.99292L17.2243 18.7362C16.9084 19.0522 16.4431 19.068 16.2217 18.8847C16.1536 18.8305 16.1095 18.7517 16.0989 18.6653C16.0884 18.5789 16.1122 18.4918 16.1653 18.4228Z" fill="white"/>
</g>
<path id="Union" fill-rule="evenodd" clip-rule="evenodd" d="M9.94301 52.0832C11.4638 52.0832 12.2511 51.4255 12.6286 51.016L12.0475 49.5853C11.6374 50.0282 10.9686 50.4142 10.0412 50.4142C8.82066 50.4142 7.80851 49.5414 7.80851 48.0075C7.80851 46.4737 8.77942 45.5882 10.0412 45.5882C11.0241 45.5882 11.8211 46.2139 11.9613 46.407L12.4989 44.8855C12.3043 44.67 11.4743 44 9.94264 44C7.77478 44 6.03839 45.5104 6.03839 48.0414C6.03839 50.562 7.75341 52.0832 9.94301 52.0832ZM3.48252 51.9469H5.2189V48.6425C5.2189 47.2802 4.81967 46.247 3.27746 46.247C2.49024 46.247 1.98305 46.6557 1.71352 47.1552C1.71352 47.1552 1.72439 46.5422 1.72439 45.9745V44.1135H0V51.9458H1.72439V49.1986C1.72439 48.3708 1.95081 47.7351 2.67355 47.7351C3.3963 47.7351 3.48252 48.3254 3.48252 49.0065V51.9469ZM18.0862 51.947H16.4368L16.4035 51.3574L16.391 51.3706C16.1627 51.6131 15.7299 52.0728 14.8826 52.0728C13.9455 52.0728 12.9521 51.539 12.9521 50.2903C12.9521 49.0415 14.0414 48.6213 15.0228 48.5759L16.3604 48.5193V48.3947C16.3604 47.8043 15.9611 47.4976 15.271 47.4976C14.5914 47.4976 13.9121 47.8155 13.6422 47.9971L13.1893 46.8165C13.6422 46.5783 14.4729 46.2489 15.4652 46.2489C16.4574 46.2489 17.0291 46.4871 17.4497 46.8962C17.8595 47.3056 18.087 47.8498 18.087 48.7922L18.0862 51.947ZM16.3712 49.4834L15.5192 49.5399C14.9906 49.5626 14.6779 49.8005 14.6779 50.2211C14.6779 50.6524 15.0123 50.9137 15.4869 50.9137C15.9506 50.9137 16.2633 50.5959 16.3712 50.4031V49.4834ZM20.9011 51.2427C21.234 51.7649 21.7963 52.0716 22.5835 52.0716C24.1261 52.0716 25.0985 50.7986 25.0985 49.1528C25.0985 47.5069 24.1279 46.2466 22.5962 46.2466C21.7873 46.2466 21.2156 46.5771 20.8272 47.0654H20.8055L20.8164 46.3501H19.1767V54H20.9011V51.2427ZM20.8471 49.1312C20.8471 48.2699 21.3539 47.6796 22.0875 47.6796V47.6781C22.8324 47.6781 23.3389 48.2699 23.3389 49.1312C23.3389 49.9924 22.8317 50.5828 22.0875 50.5828C21.3539 50.5828 20.8471 49.9924 20.8471 49.1312ZM29.098 47.7351H27.9224V49.745C27.9224 50.2218 27.9872 50.3353 28.0723 50.4377C28.1473 50.5285 28.2556 50.5739 28.482 50.5739C28.6593 50.5698 28.8345 50.5352 28.9997 50.4715L29.086 51.8908C28.6867 52.0084 28.2728 52.0696 27.8564 52.0724C27.2416 52.0724 26.8319 51.8792 26.562 51.5513C26.2921 51.2234 26.1845 50.7566 26.1845 49.905V47.7351H25.4295V46.3613H26.1845V44.8401H27.9209V46.3613H29.0965L29.098 47.7351ZM34.1953 51.4062C34.1971 51.4045 34.1986 51.4031 34.1999 51.4021L33.7913 50.029C33.7913 50.029 33.2507 50.5739 32.4418 50.5739C31.6328 50.5739 31.1042 50.0175 31.1042 49.132C31.1042 48.2465 31.6868 47.7128 32.42 47.7128C32.9218 47.7128 33.4073 47.8899 33.7898 48.2123L34.1673 46.8385C34.1673 46.8385 33.5525 46.2482 32.1936 46.2482C30.7376 46.2482 29.3679 47.2926 29.3679 49.1659C29.3679 51.0276 30.7159 52.072 32.1722 52.072C33.4965 52.072 34.0722 51.5234 34.1837 51.4172C34.1883 51.4127 34.1922 51.409 34.1953 51.4062ZM40.1426 51.9469H38.4062V49.0065C38.4062 48.3254 38.32 47.7351 37.5973 47.7351C36.8745 47.7351 36.6481 48.3708 36.6481 49.1997V51.9469H34.9237V44.1135H36.6481V45.9745C36.6481 46.5422 36.6373 47.1552 36.6373 47.1552C36.9068 46.6557 37.414 46.247 38.2012 46.247C39.7434 46.247 40.1426 47.2802 40.1426 48.6425V51.9469ZM44.3498 51.947H45.9992L46 48.7922C46 47.8498 45.7724 47.3056 45.3627 46.8962C44.9421 46.4871 44.3704 46.2489 43.3782 46.2489C42.3859 46.2489 41.5552 46.5783 41.1023 46.8165L41.5563 47.9964C41.8262 47.8148 42.5055 47.4969 43.1851 47.4969C43.8752 47.4969 44.2745 47.8036 44.2745 48.3939V48.5186L42.937 48.5752C41.9556 48.6206 40.8662 49.0408 40.8662 50.2895C40.8662 51.5383 41.8596 52.072 42.7967 52.072C43.6441 52.072 44.0768 51.6124 44.3051 51.3699L44.3176 51.3567L44.3498 51.947ZM43.4322 49.5399L44.2842 49.4834V50.4031C44.1763 50.5959 43.8636 50.9137 43.3999 50.9137C42.9253 50.9137 42.5909 50.6524 42.5909 50.2211C42.5909 49.8005 42.9036 49.5626 43.4322 49.5399Z" fill="#4D4D4D"/>
</g>
</svg>
